<svg xmlns="http://www.w3.org/2000/svg" viewBox="0 0 201.84 227.61"><defs><style>.cls-1{fill:#1a1a1a;}</style></defs><g id="Calque_2" data-name="Calque 2"><g id="Calque_1-2" data-name="Calque 1"><path class="cls-1" d="M100.92,15c3.71,0,7.38,2,10.31,5.6l75.61,93v96.9a2.08,2.08,0,0,1-2.08,2.08H137.88a1.72,1.72,0,0,1-1.73-1.73V160.65a20.37,20.37,0,0,0-20.34-20.35H86a20.37,20.37,0,0,0-20.35,20.35v50.23A1.73,1.73,0,0,1,64,212.61H17.07A2.07,2.07,0,0,1,15,210.54V113.63l75.61-93C93.55,17,97.21,15,100.92,15m0-15C93,0,85,3.71,79,11.14L.36,107.85a1.57,1.57,0,0,0-.36,1v101.7a17.07,17.07,0,0,0,17.07,17.07H64a16.73,16.73,0,0,0,16.73-16.73V160.65A5.34,5.34,0,0,1,86,155.3h29.77a5.35,5.35,0,0,1,5.34,5.35v50.23a16.73,16.73,0,0,0,16.73,16.73h46.88a17.08,17.08,0,0,0,17.08-17.08V108.84a1.57,1.57,0,0,0-.36-1L122.87,11.14c-6-7.43-14-11.14-22-11.14Z"/></g></g></svg>